<svg width="303" height="179" viewBox="0 0 303 179" fill="none" xmlns="http://www.w3.org/2000/svg">
<path d="M93.0327 92.354V94.8069L87.2598 99.6683V118.221C74.9087 122.949 65.7347 125 57.456 125C32.9326 125 20 106.313 20 89.5445C20 72.6865 33.1118 54 59.783 54C68.8672 54 77.8172 56.1407 83.7693 58.549L86.4096 75.8531H83.098L62.692 58.549C46.6264 61.4032 37.9449 72.4189 37.9449 88.5635C37.9449 105.912 47.8347 118.4 61.4391 118.4C64.0347 118.4 66.7195 117.909 69.4492 117.062V102.656L60.0071 94.807V92.3541L93.0327 92.354ZM157.652 111.977L168.393 121.209V123.751H146.42L130.4 92.577C129.326 92.6216 128.207 92.6216 127.043 92.6216H123.105V112.155L133.666 121.209V123.751H97.0605V121.209L107.667 112.155V66.8437L97.0605 57.7904V55.2484H128.61C136.486 55.2484 158.816 55.2484 158.816 73.6673C158.816 82.8101 153.312 88.6967 141.99 91.2391L148.568 94.0933L157.652 111.977ZM126.418 86.3778C134.205 86.3778 142.126 83.702 142.126 73.7565C142.126 65.3275 136.487 61.5813 123.107 61.4923V86.3778H126.418ZM208.312 57.7922L197.75 66.8455V112.157L208.312 121.21V123.752H171.706V121.21L182.312 112.157V66.8455L171.706 57.7922V55.2502H208.312V57.7922ZM268.769 109.078L283 121.209V123.751H247.289V121.209L254.718 114.876L242.545 95.5206L231 113.627L239.86 121.253L240.084 123.751H212.965L213.189 121.253L225.674 110.416L238.831 89.6335L226.077 69.2522L212.607 57.7904V55.2483H247.87V57.7904L240.128 64.3909L251.45 82.0517L262.101 65.3723L253.285 57.7461L253.061 55.2486H280.18L279.956 57.7461L267.426 68.5832L255.209 87.9388L268.769 109.078Z" fill="white"/>
</svg>
