<svg width="341" height="154" viewBox="0 0 341 154" fill="none" xmlns="http://www.w3.org/2000/svg">
<path d="M197.262 21.9717L144.131 21.9717V21.9826C140.345 22.1899 137.34 25.3251 137.34 29.1624C137.34 33.1337 140.559 36.3531 144.53 36.3531C148.232 36.3531 151.28 33.5567 151.677 29.9614L190.115 29.9614C190.513 33.5567 193.561 36.3531 197.262 36.3531C201.234 36.3531 204.453 33.1337 204.453 29.1624C204.453 25.1911 201.234 21.9717 197.262 21.9717Z" fill="#06060C"/>
<path d="M156.515 36.3531C154.309 36.3531 152.52 38.1417 152.52 40.348V76.3016C152.52 78.5079 154.309 80.2964 156.515 80.2964C158.721 80.2964 160.51 78.5079 160.51 76.3016V40.348C160.51 38.1417 158.721 36.3531 156.515 36.3531Z" fill="#06060C"/>
<path d="M170.896 36.3531C168.69 36.3531 166.901 38.1417 166.901 40.348V76.3016C166.901 78.5079 168.69 80.2964 170.896 80.2964C173.103 80.2964 174.891 78.5079 174.891 76.3016V40.348C174.891 38.1417 173.103 36.3531 170.896 36.3531Z" fill="#06060C"/>
<path d="M181.283 40.348C181.283 38.1417 183.071 36.3531 185.278 36.3531C187.484 36.3531 189.273 38.1417 189.273 40.348V76.3016C189.273 78.5079 187.484 80.2964 185.278 80.2964C183.071 80.2964 181.283 78.5079 181.283 76.3016V40.348Z" fill="#06060C"/>
<path d="M141.822 120.684V121.887L138.991 124.272V133.372C132.932 135.69 128.433 136.697 124.372 136.697C112.343 136.697 106 127.531 106 119.306C106 111.037 112.431 101.872 125.513 101.872C129.969 101.872 134.359 102.922 137.278 104.103L138.574 112.59H136.949L126.94 104.103C119.06 105.503 114.802 110.906 114.802 118.825C114.802 127.334 119.653 133.459 126.326 133.459C127.599 133.459 128.916 133.219 130.255 132.803V125.737L125.623 121.887V120.684L141.822 120.684ZM173.518 130.309L178.786 134.837V136.084H168.008L160.15 120.793C159.624 120.815 159.075 120.815 158.504 120.815H156.573V130.396L161.753 134.837V136.084H143.798V134.837L149 130.396V108.171L143.798 103.731V102.484H159.272C163.136 102.484 174.089 102.484 174.089 111.518C174.089 116.003 171.389 118.89 165.835 120.137L169.062 121.537L173.518 130.309ZM158.198 117.753C162.017 117.753 165.902 116.44 165.902 111.562C165.902 107.428 163.136 105.59 156.573 105.547V117.753H158.198ZM198.366 103.732L193.186 108.172V130.397L198.366 134.838V136.085H180.411V134.838L185.613 130.397V108.172L180.411 103.732V102.485H198.366V103.732ZM228.02 128.887L235 134.837V136.084H217.484V134.837L221.128 131.731L215.157 122.237L209.494 131.118L213.84 134.859L213.95 136.084H200.648L200.758 134.859L206.882 129.543L213.335 119.35L207.08 109.353L200.473 103.731V102.484H217.769V103.731L213.972 106.968L219.525 115.631L224.749 107.45L220.425 103.709L220.315 102.484H233.617L233.507 103.709L227.361 109.025L221.369 118.518L228.02 128.887Z" fill="#06060C"/>
</svg>
